<?xml version="1.0" standalone="no"?>
<!DOCTYPE svg PUBLIC "-//W3C//DTD SVG 20010904//EN"
 "http://www.w3.org/TR/2001/REC-SVG-20010904/DTD/svg10.dtd">
<svg version="1.0" xmlns="http://www.w3.org/2000/svg"
 width="350.000000pt" height="350.000000pt" viewBox="0 0 350.000000 350.000000"
 preserveAspectRatio="xMidYMid meet">
<metadata>
Created by potrace 1.14, written by Peter Selinger 2001-2017
</metadata>
<g transform="translate(0.000000,350.000000) scale(0.100000,-0.100000)"
fill="#000000" stroke="none">
<path d="M1374 2734 c-20 -47 -11 -80 26 -99 35 -18 79 -20 85 -2 3 6 -6 39
-19 72 -20 49 -29 61 -51 63 -21 3 -28 -3 -41 -34z"/>
<path d="M1460 2594 c-58 -13 -138 -29 -177 -36 l-73 -13 0 -45 c-1 -65 -36
-217 -65 -276 -14 -28 -64 -95 -112 -150 -75 -85 -84 -99 -66 -102 30 -4 115
41 158 83 30 31 41 57 36 88 -1 4 19 49 43 101 37 80 48 95 76 104 39 14 50 9
50 -23 0 -18 -8 -26 -42 -37 -27 -8 -44 -20 -46 -32 -4 -17 2 -18 90 -11 51 4
98 8 103 9 6 0 9 -38 6 -105 -4 -132 16 -190 73 -214 43 -18 169 -20 249 -4
54 11 57 13 57 41 0 79 -33 238 -50 238 -5 0 -12 -35 -16 -77 -6 -73 -9 -81
-45 -117 l-39 -38 -71 4 c-82 4 -109 25 -109 83 0 42 31 68 106 92 51 16 54
18 54 50 0 40 -8 41 -78 8 -30 -14 -58 -25 -62 -25 -11 0 0 71 13 88 5 6 21
12 36 12 27 0 62 36 108 109 l22 35 -27 18 c-18 12 -46 18 -84 18 -54 0 -58 2
-58 23 0 35 19 47 72 47 44 0 48 2 48 24 0 26 -34 57 -60 55 -8 -1 -62 -12
-120 -25z m-14 -98 c8 -32 -2 -46 -31 -46 -18 0 -23 4 -19 15 4 8 1 22 -5 29
-10 11 -8 15 6 19 36 9 43 7 49 -17z m-138 -77 c-7 -5 -21 -9 -31 -9 -24 0
-13 48 17 74 21 18 21 18 24 -19 2 -24 -2 -41 -10 -46z m233 1 c25 -14 24 -45
-1 -70 -42 -42 -65 -10 -40 54 11 29 13 30 41 16z m-101 -44 c0 -40 -11 -56
-36 -56 -26 0 -32 26 -14 61 16 28 50 25 50 -5z"/>
<path d="M2611 2544 c0 -12 -8 -25 -17 -28 -12 -4 -14 -1 -9 14 9 27 -4 25
-15 -2 -7 -18 -9 -19 -9 -5 -1 10 -9 17 -21 17 -17 0 -20 -7 -20 -52 0 -34 3
-48 9 -39 6 8 14 10 22 5 8 -5 22 -7 32 -5 16 2 17 -1 7 -18 -6 -12 -8 -21 -6
-21 10 0 36 59 36 80 0 11 5 20 10 20 12 0 12 -4 1 -52 -9 -40 2 -54 13 -15
11 40 7 77 -8 77 -8 0 -17 10 -19 23 -4 21 -4 21 -6 1z m-63 -44 c-1 -16 -5
-30 -10 -30 -4 0 -8 14 -8 30 0 17 4 30 9 30 5 0 9 -13 9 -30z m62 -13 c0 -14
-6 -24 -15 -24 -18 0 -18 2 -5 28 14 25 20 24 20 -4z m-36 -12 c-4 -8 -8 -15
-10 -15 -2 0 -4 7 -4 15 0 8 4 15 10 15 5 0 7 -7 4 -15z"/>
<path d="M2770 2542 c0 -11 -7 -23 -16 -26 -12 -4 -14 -1 -9 14 9 27 -4 25
-15 -2 -7 -18 -9 -19 -9 -5 -1 10 -9 17 -21 17 -17 0 -20 -7 -20 -52 0 -34 3
-48 9 -39 6 8 14 10 22 5 8 -5 22 -7 32 -5 16 2 17 -1 7 -18 -6 -12 -8 -21 -6
-21 10 0 36 59 36 80 0 11 5 20 10 20 12 0 12 -4 1 -52 -9 -40 2 -54 13 -15
11 43 7 77 -10 77 -10 0 -14 6 -11 15 4 8 2 17 -3 20 -6 4 -10 -3 -10 -13z
m-60 -42 c0 -16 -4 -30 -10 -30 -5 0 -10 14 -10 30 0 17 5 30 10 30 6 0 10
-13 10 -30z m60 -13 c0 -14 -6 -24 -15 -24 -18 0 -18 2 -5 28 14 25 20 24 20
-4z m-36 -12 c-4 -8 -8 -15 -10 -15 -2 0 -4 7 -4 15 0 8 4 15 10 15 5 0 7 -7
4 -15z"/>
<path d="M2217 2525 c-13 -9 -17 -20 -12 -34 8 -26 21 -27 34 -3 6 9 11 12 11
6 0 -5 -7 -19 -15 -30 -17 -22 -20 -70 -5 -79 6 -3 13 1 16 9 3 9 10 14 14 11
5 -3 11 -1 15 4 3 6 -7 17 -22 26 l-28 15 29 -6 c23 -6 28 -4 24 7 -3 8 -8 25
-12 39 l-7 25 15 -25 c9 -14 15 -33 16 -42 0 -21 11 -23 28 -6 23 23 12 46
-32 72 -52 30 -46 29 -69 11z"/>
<path d="M2168 2502 c-20 -4 -23 -28 -8 -66 11 -30 36 -34 45 -8 8 28 -17 78
-37 74z"/>
<path d="M2113 2467 c-21 -9 -23 -16 -23 -98 l0 -88 61 -36 c33 -19 62 -35 65
-35 2 0 4 16 4 36 0 36 0 36 -35 30 -45 -9 -62 19 -26 42 l22 15 -23 25 c-16
17 -19 26 -10 29 8 3 4 12 -13 25 -14 11 -23 23 -20 26 3 4 10 0 15 -8 12 -20
17 -10 11 21 -5 23 -9 25 -28 16z"/>
<path d="M2305 2417 c-27 -28 -40 -45 -28 -39 12 7 25 17 28 22 3 6 13 10 21
10 21 0 17 -38 -6 -52 -25 -16 -26 -58 -2 -88 18 -22 19 -22 45 -5 26 17 27
21 27 105 0 71 -3 89 -16 94 -9 3 -16 6 -17 5 -1 -1 -24 -24 -52 -52z"/>
<path d="M2180 2386 c0 -2 9 -6 20 -9 11 -3 18 -1 14 4 -5 9 -34 13 -34 5z"/>
<path d="M2545 2307 c-16 -17 -24 -27 -17 -23 9 5 12 -6 12 -45 l0 -51 26 17
c19 12 29 14 37 6 6 -6 18 -11 26 -11 10 0 8 5 -8 17 -19 13 -28 14 -42 4 -15
-9 -19 -8 -19 3 0 10 10 14 33 11 31 -2 33 -1 29 22 -3 14 0 28 6 32 7 4 3 12
-11 20 -20 13 -21 13 -8 -2 12 -15 11 -17 -3 -17 -15 0 -20 11 -17 38 3 19
-11 12 -44 -21z m30 -7 c3 -5 -1 -10 -10 -10 -9 0 -13 5 -10 10 3 6 8 10 10
10 2 0 7 -4 10 -10z m28 -27 c-7 -2 -21 -2 -30 0 -10 3 -4 5 12 5 17 0 24 -2
18 -5z m0 -20 c-7 -2 -21 -2 -30 0 -10 3 -4 5 12 5 17 0 24 -2 18 -5z"/>
<path d="M2893 2323 c1 -16 8 -23 22 -23 16 -1 11 -9 -27 -43 -41 -37 -44 -42
-25 -44 12 0 42 -4 67 -7 l45 -6 -42 13 c-23 6 -44 15 -48 18 -3 3 10 18 30
33 38 29 45 46 19 46 -9 0 -23 8 -30 18 -12 16 -13 15 -11 -5z"/>
<path d="M3080 2332 c0 -7 -8 -12 -17 -11 -33 3 -66 -1 -60 -7 3 -3 22 -6 41
-6 48 0 46 -18 -1 -19 -31 -2 -33 -3 -10 -6 41 -6 37 -40 -5 -46 l-33 -4 33
-1 c26 -2 32 -6 33 -24 1 -21 2 -21 6 -3 3 11 8 22 12 25 3 3 12 16 19 30 l13
25 -21 -24 c-20 -23 -20 -23 -20 -2 0 12 5 21 10 21 6 0 10 7 10 15 0 8 8 15
18 16 13 0 14 2 2 6 -8 3 -18 11 -22 17 -5 7 -8 7 -8 -2z"/>
<path d="M2680 2288 c0 -32 3 -39 10 -28 8 13 10 13 10 -2 0 -9 -6 -19 -12
-21 -10 -4 -9 -6 1 -6 10 -1 11 -4 2 -15 -9 -11 -7 -12 12 -9 20 4 23 9 19 35
-3 21 -1 29 7 24 7 -5 11 4 11 28 0 33 -2 36 -30 36 -29 0 -30 -2 -30 -42z
m47 0 c-3 -7 -5 -2 -5 12 0 14 2 19 5 13 2 -7 2 -19 0 -25z"/>
<path d="M2776 2315 c-11 -8 -16 -15 -10 -15 5 0 2 -5 -6 -10 -10 -6 -11 -10
-2 -10 7 0 12 -14 12 -36 0 -33 -2 -35 -17 -23 -16 13 -17 12 -4 -3 21 -28 31
-21 31 22 0 22 5 40 11 40 5 0 7 -6 3 -12 -5 -10 -3 -10 7 0 12 11 12 14 0 22
-12 7 -12 11 -2 24 17 20 2 20 -23 1z"/>
<path d="M1246 2150 c-21 -91 -18 -182 7 -207 15 -15 19 -14 58 13 85 58 135
124 95 124 -7 0 -25 -9 -39 -20 -31 -25 -92 -28 -83 -4 3 9 6 22 6 30 0 7 24
26 53 40 54 28 67 39 67 63 0 11 -11 12 -50 7 -46 -6 -50 -5 -50 14 0 14 -7
20 -22 20 -20 0 -25 -9 -42 -80z"/>
<path d="M2274 1843 c-95 -176 -89 -163 -70 -163 14 0 16 -19 16 -135 0 -127
1 -135 19 -135 11 0 22 4 25 9 13 21 146 52 213 49 l68 -3 0 -66 c0 -53 -6
-76 -30 -125 l-31 -59 -49 1 c-28 1 -61 5 -74 9 -18 6 -23 5 -19 -6 5 -17 157
-109 180 -109 11 0 22 17 33 48 10 26 28 70 41 97 13 28 28 75 35 105 6 30 18
65 26 78 21 33 13 45 -47 66 -37 13 -66 17 -102 13 -48 -6 -50 -5 -44 16 3 12
13 62 22 112 9 49 20 97 25 107 5 9 9 21 9 27 0 16 -117 13 -174 -4 -27 -8
-51 -14 -52 -12 -6 6 65 103 100 136 20 19 36 39 36 43 0 8 -59 48 -71 48 -3
0 -41 -66 -85 -147z m136 -165 c0 -35 -4 -69 -9 -77 -5 -8 -29 -17 -53 -21
l-43 -6 60 -31 c63 -33 63 -34 -17 -52 -73 -17 -89 -15 -84 12 3 12 10 50 17
85 13 67 22 73 62 42 l26 -21 11 21 c17 33 5 50 -35 50 -24 0 -35 5 -35 14 0
21 40 46 72 46 28 0 28 -1 28 -62z"/>
<path d="M1395 1734 c-5 -1 -22 -5 -37 -8 -34 -8 -62 -36 -101 -105 -38 -66
-88 -92 -202 -102 -44 -4 -116 -18 -160 -32 l-80 -26 405 0 c223 1 413 4 423
8 16 6 4 23 -76 116 -107 126 -121 139 -141 132 -8 -3 -16 0 -18 7 -2 7 -7 12
-13 10z"/>
<path d="M1985 1707 c-69 -22 -70 -23 -73 -60 -3 -38 29 -107 68 -142 18 -16
22 -17 54 -1 19 9 42 16 53 16 30 0 39 12 52 67 7 28 19 60 26 70 19 24 19 49
0 57 -46 17 -113 15 -180 -7z m92 -39 c23 -37 -15 -101 -56 -96 -48 6 -38 78
14 98 28 12 33 12 42 -2z"/>
<path d="M317 1500 c-32 -15 -61 -31 -64 -34 -3 -2 109 -5 248 -4 l254 0 -90
23 c-49 13 -103 28 -118 34 -16 6 -61 11 -100 10 -58 0 -84 -6 -130 -29z"/>
<path d="M2345 1379 c-159 -30 -285 -61 -285 -70 0 -22 21 -59 34 -59 8 0 30
9 48 19 42 24 116 38 246 47 78 5 102 10 102 21 0 16 -29 63 -39 62 -3 -1 -51
-9 -106 -20z"/>
</g>
</svg>
