<?xml version="1.0" standalone="no"?>
<!DOCTYPE svg PUBLIC "-//W3C//DTD SVG 20010904//EN"
 "http://www.w3.org/TR/2001/REC-SVG-20010904/DTD/svg10.dtd">
<svg version="1.0" xmlns="http://www.w3.org/2000/svg"
 width="960.000000pt" height="960.000000pt" viewBox="0 0 960.000000 960.000000"
 preserveAspectRatio="xMidYMid meet">
<metadata>
Created by potrace 1.14, written by Peter Selinger 2001-2017
</metadata>
<g transform="translate(0.000000,960.000000) scale(0.100000,-0.100000)"
fill="#000000" stroke="none">
<path d="M3066 8293 c-3 -3 -6 -27 -7 -52 0 -25 -6 -79 -12 -120 -12 -74 -30
-100 -41 -63 -4 11 -15 27 -26 37 -11 10 -20 26 -20 35 0 10 -19 35 -42 56
l-42 37 -11 -55 c-6 -30 -19 -67 -29 -82 -16 -25 -19 -26 -34 -13 -25 22 -43
23 -78 5 -20 -11 -35 -13 -45 -7 -8 5 -21 9 -31 9 -15 0 -15 -4 -2 -47 8 -25
14 -63 14 -83 0 -30 8 -45 48 -86 l47 -49 3 28 c5 38 19 34 68 -18 l43 -45 46
20 c54 23 59 24 50 9 -8 -12 14 -69 27 -69 5 0 12 -10 17 -22 7 -21 11 -18 39
31 28 49 30 52 37 30 9 -27 45 -76 46 -63 0 5 4 1 8 -10 6 -15 14 -8 44 44 41
69 55 116 58 204 2 56 1 60 -32 87 -19 16 -39 29 -45 29 -8 0 -7 20 2 68 13
67 13 67 -14 95 -37 39 -78 68 -86 60z m-202 -318 c-4 -8 -8 -15 -10 -15 -2 0
-4 7 -4 15 0 8 4 15 10 15 5 0 7 -7 4 -15z m136 -47 c0 -17 -3 -18 -14 -8 -8
6 -12 18 -9 26 7 19 23 7 23 -18z"/>
<path d="M1645 8001 c-82 -50 -91 -106 -47 -291 16 -69 40 -168 51 -220 12
-52 33 -140 46 -195 13 -55 37 -158 54 -230 17 -71 38 -173 46 -225 9 -52 29
-151 45 -220 16 -69 43 -181 59 -250 16 -69 39 -168 51 -220 40 -177 73 -305
86 -336 21 -51 30 -54 439 -129 168 -31 215 -39 365 -60 107 -15 229 -40 234
-47 8 -10 147 -353 164 -403 28 -84 91 -243 105 -265 8 -14 8 -43 -2 -120 -15
-120 -18 -132 -40 -126 -24 8 -147 26 -216 32 -52 5 -65 3 -95 -18 -44 -30
-60 -61 -60 -118 0 -51 28 -105 62 -121 13 -5 73 -20 133 -32 137 -28 135 -22
79 -200 -8 -26 -13 -56 -10 -65 4 -10 -3 -35 -14 -57 -11 -22 -20 -44 -20 -51
0 -6 -10 -22 -23 -36 -12 -13 -31 -52 -41 -86 -17 -56 -18 -64 -4 -79 9 -10
24 -34 33 -53 10 -19 25 -42 34 -50 41 -38 81 -93 81 -110 0 -31 106 -160 131
-160 10 0 19 28 19 61 0 39 20 86 54 126 36 42 75 153 121 343 21 85 41 159
45 163 7 8 54 -142 91 -288 28 -113 84 -305 136 -475 25 -80 53 -174 63 -210
10 -36 27 -96 38 -135 11 -38 28 -104 38 -145 9 -41 25 -97 34 -125 10 -27 41
-129 69 -225 29 -96 65 -216 81 -266 16 -49 34 -119 40 -154 13 -74 35 -121
96 -206 97 -137 259 -216 440 -215 95 0 155 15 233 57 36 19 70 34 76 34 16 0
102 90 125 131 50 87 72 135 104 226 19 54 47 130 61 168 14 39 41 120 60 180
19 61 47 146 63 190 76 208 125 343 139 375 7 19 22 66 33 105 10 38 40 129
65 200 26 72 56 156 67 188 15 44 27 61 47 69 74 30 91 40 91 53 0 8 -5 17
-11 21 -6 3 -19 20 -29 36 -18 29 -18 32 1 86 10 30 19 63 19 72 0 16 45 142
116 328 28 72 40 92 55 92 11 0 57 9 102 19 45 11 145 34 222 50 216 48 218
49 244 86 34 50 37 101 9 155 -18 36 -31 48 -65 59 -45 16 -89 12 -307 -30
-54 -11 -102 -17 -105 -14 -3 3 0 14 6 24 6 10 30 67 53 127 24 60 46 114 50
119 4 6 29 66 55 135 88 235 201 518 211 529 6 7 174 39 267 52 51 6 142 20
202 31 61 11 159 28 218 39 208 37 296 57 321 76 33 24 48 72 116 373 12 52
34 149 50 215 57 242 79 341 89 400 24 131 51 257 86 405 20 85 56 241 80 345
24 105 50 218 59 251 38 148 -2 236 -113 251 -99 13 -135 -36 -185 -252 -20
-88 -42 -182 -48 -210 -6 -27 -15 -54 -20 -60 -5 -5 -74 57 -167 149 -87 87
-165 162 -172 167 -21 13 -96 11 -133 -5 -54 -22 -76 -60 -76 -127 l0 -59 235
-233 c129 -128 235 -237 235 -241 0 -29 -26 -172 -51 -276 -50 -213 -77 -330
-109 -470 -17 -74 -42 -182 -55 -240 -14 -58 -28 -115 -30 -127 -4 -15 -13
-23 -26 -23 -11 0 -88 -13 -172 -29 -84 -16 -190 -36 -237 -45 -47 -9 -123
-23 -170 -31 -47 -9 -96 -18 -108 -21 l-24 -5 7 108 c10 163 34 425 50 548 27
208 29 277 10 315 -19 36 -646 670 -682 689 -61 32 -152 -2 -185 -69 -19 -38
-23 -96 -9 -120 12 -19 86 -98 181 -191 41 -40 120 -121 175 -178 55 -58 107
-111 117 -119 9 -7 40 -36 68 -62 l52 -49 -7 -118 c-7 -120 -27 -336 -66 -698
-19 -186 -23 -206 -58 -285 -21 -47 -51 -120 -67 -163 -28 -75 -43 -90 -54
-51 -6 23 -75 150 -101 184 -22 30 -139 234 -139 243 0 7 -91 161 -116 196
-36 51 -132 64 -189 27 -14 -9 -34 -35 -46 -58 -27 -53 -21 -102 19 -163 17
-26 50 -85 73 -133 24 -48 46 -89 49 -92 4 -3 34 -52 67 -110 34 -58 77 -130
97 -160 20 -30 40 -66 43 -80 6 -25 33 -73 91 -164 18 -28 32 -58 32 -67 0 -9
-21 -66 -46 -126 -25 -59 -59 -146 -74 -193 -16 -47 -40 -111 -54 -142 -23
-52 -31 -59 -78 -80 -29 -12 -77 -35 -105 -50 -29 -15 -60 -28 -69 -28 -15 0
-127 -51 -412 -187 -52 -24 -113 -50 -138 -58 l-43 -13 -6 32 c-3 17 -5 72 -3
121 l3 90 100 7 c134 10 218 23 290 46 33 11 71 22 85 25 14 4 34 13 45 21 20
14 19 15 -11 48 -18 18 -35 48 -39 66 -11 52 -65 98 -141 122 -83 25 -145 25
-236 0 -39 -11 -73 -18 -75 -17 -1 2 -5 37 -9 78 -3 41 -13 84 -20 96 -9 14
-10 24 -4 28 12 7 13 65 2 65 -12 0 -29 40 -38 84 -3 20 -17 45 -30 55 l-23
18 74 18 74 17 32 -26 c38 -32 43 -32 67 -1 18 23 27 51 50 155 38 170 98 375
127 433 19 38 35 74 35 81 0 7 -11 22 -25 34 -14 13 -25 33 -25 47 0 45 -46
79 -155 115 -55 18 -116 39 -136 47 -36 15 -104 10 -115 -8 -8 -14 -24 -11
-24 4 0 7 -13 31 -30 53 -16 21 -30 44 -30 50 0 6 -14 26 -31 43 -17 18 -29
35 -26 37 10 10 265 53 372 63 61 5 118 13 128 17 21 8 22 28 1 45 -9 7 -29
40 -46 73 -17 34 -42 76 -55 95 -30 39 -93 70 -144 71 -22 0 -42 7 -53 19 -22
25 -111 47 -129 33 -12 -10 -269 -63 -275 -57 -2 2 -16 42 -32 89 -45 135
-107 207 -200 232 -30 8 -72 23 -92 34 -45 24 -78 26 -78 4 0 -12 -11 -15 -55
-12 -51 3 -57 1 -72 -23 -16 -26 -15 -28 11 -53 14 -15 33 -37 40 -49 17 -26
46 -164 46 -216 0 -20 7 -48 14 -63 13 -25 13 -29 -2 -37 -9 -5 -45 -12 -80
-16 -34 -4 -64 -10 -67 -15 -3 -4 -29 -11 -58 -14 -29 -4 -66 -15 -81 -25 -15
-10 -36 -16 -47 -14 -11 3 -26 0 -33 -6 -16 -14 -194 -61 -229 -61 -12 0 -31
-7 -41 -15 -18 -14 -18 -15 7 -48 19 -25 45 -41 99 -61 44 -16 87 -41 108 -61
43 -42 108 -71 177 -81 l53 -7 -38 -18 c-24 -12 -48 -37 -69 -71 -26 -43 -32
-49 -33 -29 0 37 -64 143 -113 188 -78 72 -297 137 -347 104 -12 -8 -9 -16 19
-45 20 -20 49 -38 67 -42 55 -10 58 -40 49 -424 -3 -124 -8 -245 -11 -270 l-6
-45 -20 50 c-11 28 -37 91 -58 142 -36 83 -41 106 -55 250 -8 87 -17 167 -20
178 -7 36 -44 426 -51 551 l-6 121 291 291 c160 160 296 303 301 317 6 15 10
37 10 51 0 39 -38 103 -73 124 -36 22 -97 26 -130 9 -12 -6 -117 -108 -234
-225 -117 -118 -217 -214 -223 -214 -12 0 -13 42 0 95 10 39 9 41 -40 88 -27
27 -54 45 -60 42 -5 -3 -10 -23 -10 -43 0 -63 -24 -202 -35 -202 -14 0 -65 65
-65 83 0 8 -19 32 -42 53 l-42 37 -11 -55 c-6 -30 -19 -67 -29 -82 -16 -25
-19 -26 -34 -13 -25 22 -43 23 -78 5 -20 -11 -35 -13 -45 -7 -8 5 -22 9 -32 9
-15 0 -16 -3 -7 -20 6 -11 13 -49 17 -85 5 -60 9 -68 52 -112 l46 -48 3 28 c5
38 20 34 71 -19 42 -43 44 -44 67 -29 13 8 26 15 29 15 3 0 5 -24 5 -52 0 -29
7 -107 15 -173 21 -172 52 -502 60 -628 l6 -108 -23 5 c-13 3 -61 12 -108 21
-47 8 -123 22 -170 31 -47 9 -153 29 -237 45 -84 16 -161 29 -172 29 -11 0
-22 8 -24 18 -8 28 -87 369 -149 637 -11 50 -27 117 -35 150 -23 92 -50 224
-58 283 l-7 54 233 231 233 231 4 61 c3 50 0 65 -18 88 -28 35 -80 57 -135 57
-52 0 -56 -3 -246 -192 -77 -77 -144 -137 -149 -132 -4 5 -15 43 -24 84 -74
340 -97 403 -154 429 -35 17 -94 13 -127 -8z m1219 -996 c-4 -8 -8 -15 -10
-15 -2 0 -4 7 -4 15 0 8 4 15 10 15 5 0 7 -7 4 -15z m136 -47 c0 -17 -3 -18
-14 -8 -8 6 -12 18 -9 26 7 19 23 7 23 -18z m1545 -767 c4 -28 4 -80 0 -116
-8 -74 -16 -83 -95 -108 -73 -24 -100 -28 -100 -17 0 6 -19 31 -42 56 -47 51
-120 92 -169 96 l-33 3 -1 -105 c-2 -116 -7 -136 -36 -143 -19 -5 -19 -5 1 28
45 72 16 166 -65 212 l-40 23 45 0 c25 0 95 15 155 34 93 28 155 44 320 79 49
11 53 9 60 -42z m331 -498 c-3 -27 -11 -49 -16 -51 -6 -2 -10 -16 -10 -32 0
-34 -27 -100 -40 -100 -14 0 -12 22 9 124 17 80 30 105 55 106 5 0 6 -21 2
-47z m-861 -72 c47 -17 50 -20 57 -60 5 -32 21 -58 67 -108 33 -37 58 -70 55
-75 -3 -4 -17 -8 -32 -8 -15 0 -58 -6 -97 -14 -38 -8 -113 -20 -167 -25 -109
-12 -128 -18 -128 -36 0 -22 127 -123 168 -134 20 -6 59 -24 85 -41 26 -16 65
-39 87 -50 l40 -20 157 19 c87 11 191 27 230 34 61 12 74 12 84 1 9 -12 30
-118 29 -149 -8 -191 -19 -318 -28 -327 -7 -7 -12 -27 -12 -46 l0 -34 -39 33
c-27 24 -40 43 -40 62 -1 15 -5 27 -10 27 -5 0 -16 6 -24 14 -16 17 -82 48
-112 53 -67 12 -143 13 -182 4 -25 -7 -48 -9 -51 -6 -3 3 -7 42 -10 87 -2 46
-10 90 -17 98 -7 8 -16 29 -19 45 -13 62 -42 81 -160 104 -59 11 -119 21 -132
21 -34 0 -41 -26 -16 -53 23 -24 45 -112 60 -242 13 -104 7 -144 -24 -156 -34
-12 -40 -36 -17 -57 19 -16 43 -54 43 -66 0 -3 -15 1 -32 10 -27 13 -39 30
-66 97 -55 134 -54 100 -18 487 21 228 26 262 41 280 7 8 43 68 80 133 44 78
72 117 83 116 10 0 39 -8 67 -18z m449 -18 c-4 -21 -11 -48 -15 -61 -5 -13 -9
-34 -9 -47 0 -12 -9 -33 -20 -46 l-19 -24 -1 96 c0 90 1 97 23 107 41 20 48
15 41 -25z m155 -1170 c1 -76 -4 -92 -30 -86 -10 3 -16 10 -12 16 4 6 -2 8
-15 5 -15 -4 -19 -2 -15 8 13 33 -49 -4 -115 -70 -19 -20 -40 -36 -46 -36 -24
0 -216 101 -216 114 0 14 118 56 158 56 12 0 45 10 74 21 29 12 87 34 128 49
l75 28 7 -22 c3 -11 6 -49 7 -83z m1026 -329 c-32 -124 -34 -126 -69 -120 -17
3 -84 8 -149 12 l-118 7 98 47 c54 26 127 60 163 75 36 16 69 32 74 37 17 14
17 2 1 -58z m-1108 -223 c97 -40 177 -55 274 -49 78 5 81 4 97 -21 29 -48 76
-91 98 -91 12 0 24 -5 26 -10 2 -6 39 -24 83 -41 71 -28 95 -32 210 -36 72 -3
134 -9 139 -14 5 -4 -6 -51 -26 -111 -19 -57 -45 -132 -56 -168 -30 -94 -110
-320 -126 -355 -7 -16 -33 -88 -56 -160 -131 -396 -240 -697 -263 -723 -7 -9
-17 -25 -20 -34 -6 -18 -78 -53 -145 -70 -47 -12 -88 -4 -167 32 -74 33 -110
92 -146 236 -27 108 -56 210 -104 369 -20 66 -51 172 -70 235 -19 63 -46 153
-60 199 -14 47 -25 94 -25 105 0 11 -15 70 -34 130 -49 157 -84 277 -92 308
-5 24 -1 30 48 61 29 19 70 42 91 52 32 15 100 70 203 167 16 14 34 25 39 23
6 -2 42 -17 82 -34z"/>
<path d="M7210 4848 c-25 -39 -70 -101 -101 -138 l-57 -67 22 -38 c35 -63 52
-67 92 -20 l34 40 0 -30 c-1 -93 -21 -231 -36 -242 -20 -15 -10 -34 45 -88
l41 -39 33 17 c34 18 74 70 69 89 -5 17 45 1 146 -47 l92 -44 -16 32 c-9 18
-40 57 -70 87 l-54 55 30 28 c34 33 31 48 -20 90 -29 25 -30 27 -20 74 l11 47
-38 33 c-26 22 -49 32 -71 33 -31 0 -53 22 -38 37 5 5 90 -21 214 -65 24 -9
11 24 -27 65 -29 31 -54 46 -94 58 -38 11 -57 22 -65 40 -16 35 -45 65 -62 64
-8 0 -35 -32 -60 -71z"/>
<path d="M7370 3888 c-46 -22 -57 -24 -70 -14 -39 34 -55 36 -132 12 -91 -28
-115 -41 -99 -50 6 -4 11 -33 11 -65 0 -51 4 -62 36 -99 l35 -42 -26 -10 c-14
-5 -31 -10 -36 -10 -16 0 -10 -16 16 -40 14 -13 25 -30 25 -37 0 -7 -11 -19
-25 -25 -14 -6 -25 -15 -25 -19 0 -4 -12 -9 -27 -11 l-27 -3 43 -42 c26 -27
51 -43 66 -43 13 0 56 16 95 36 40 20 73 34 74 32 1 -2 17 -25 34 -53 17 -27
44 -64 59 -82 l27 -32 22 37 c17 29 23 61 29 147 7 112 14 129 49 121 18 -5
86 51 86 71 0 13 -64 73 -78 73 -16 0 -15 3 5 45 l17 35 -39 40 c-55 56 -78
61 -145 28z m-10 -88 c12 -8 11 -10 -7 -10 -13 0 -23 5 -23 10 0 13 11 13 30
0z m1 -84 c-39 -11 -43 -7 -35 33 l7 32 29 -28 29 -28 -30 -9z m-24 -101 c32
-19 33 -22 33 -87 0 -58 -3 -67 -20 -73 -26 -8 -39 1 -34 23 3 9 -7 29 -21 44
l-25 28 25 6 c30 7 32 25 5 49 -11 10 -17 22 -14 27 7 10 6 10 51 -17z m153
-7 c0 -4 -4 -8 -9 -8 -6 0 -12 4 -15 8 -3 5 1 9 9 9 8 0 15 -4 15 -9z"/>
<path d="M6429 3563 l-54 -58 3 -67 c3 -66 -9 -91 -23 -48 -9 29 -50 35 -95
15 -32 -14 -45 -15 -71 -6 -18 6 -34 9 -36 7 -2 -2 1 -23 6 -47 6 -24 11 -64
11 -89 0 -41 5 -50 48 -93 26 -26 51 -47 56 -47 5 0 27 -16 49 -36 36 -33 44
-36 85 -31 44 5 47 3 92 -44 26 -27 52 -49 58 -49 7 0 12 -4 12 -10 0 -5 11
-10 25 -10 15 0 25 6 25 14 0 8 8 21 19 28 31 22 91 162 91 212 0 19 -68 86
-87 86 -4 0 -7 39 -5 86 3 81 2 87 -22 109 -14 13 -26 34 -26 45 0 12 -6 27
-13 33 -73 68 -83 68 -148 0z m91 -212 c0 -9 7 -26 15 -38 13 -19 13 -22 -1
-27 -38 -15 -44 -7 -44 50 0 49 2 55 15 44 8 -7 15 -20 15 -29z m-90 -130 c28
-22 28 -22 -52 -40 -61 -14 -109 -15 -88 -1 8 5 27 10 43 10 20 0 27 5 27 19
0 54 14 56 70 12z"/>
<path d="M7218 2889 c-9 -6 -9 -9 4 -14 16 -6 38 -53 38 -80 0 -7 -15 -18 -32
-25 -18 -6 -61 -24 -95 -39 -61 -27 -62 -28 -46 -50 8 -12 33 -35 55 -51 l39
-29 -23 -14 c-13 -8 -38 -18 -55 -22 -18 -4 -33 -10 -33 -15 0 -15 51 -70 66
-70 8 0 14 -3 14 -7 0 -5 42 -9 93 -11 85 -3 264 -39 308 -62 21 -12 32 -1 18
16 -6 8 -9 20 -6 28 7 17 -48 69 -88 84 -16 6 -56 16 -88 23 l-58 12 67 67
c95 95 95 95 43 141 -24 22 -56 51 -72 64 -15 14 -32 25 -38 25 -5 0 -7 4 -4
10 9 15 -86 32 -107 19z"/>
<path d="M7310 1991 c0 -63 -20 -70 -73 -24 -21 19 -48 33 -62 33 -29 0 -30
-7 -10 -34 25 -33 19 -54 -16 -58 l-32 -3 37 -45 c20 -25 40 -50 46 -57 10
-12 -8 -23 -41 -23 -10 0 -19 -5 -19 -12 0 -19 82 -98 102 -98 10 0 18 -7 18
-15 0 -22 -11 -18 -49 15 -18 17 -38 30 -43 30 -11 0 0 -70 14 -87 7 -8 -11
-15 -66 -24 -42 -7 -76 -15 -76 -18 0 -4 16 -23 36 -45 34 -37 37 -38 82 -33
26 4 57 9 70 13 21 6 22 4 22 -61 0 -63 2 -69 35 -102 19 -19 35 -40 36 -47 0
-6 4 -2 9 9 5 11 9 64 9 118 1 70 5 97 14 98 6 1 65 4 130 8 l119 6 -34 50
c-32 48 -35 50 -85 53 -36 2 -53 7 -53 16 0 8 -7 19 -15 26 -18 15 -11 30 14
30 25 0 16 41 -15 71 -32 30 -30 37 10 45 38 7 38 16 4 66 -10 14 -18 36 -18
48 0 23 -69 100 -89 100 -7 0 -11 -20 -11 -49z"/>
</g>
</svg>
